<svg xmlns="http://www.w3.org/2000/svg" viewBox="0 0 128 128">
    <defs>
        <filter id="glow" x="-30%" y="-30%" width="160%" height="160%">
            <feDropShadow dx="0" dy="0" stdDeviation="4" flood-color="#FFFFFF" flood-opacity="0.6"/>
        </filter>
    </defs>

    <!-- Minimalist G with 5 Office colors -->
    <g filter="url(#glow)">
        <!-- Green - Top arc -->
        <path d="M 98 38 C 98 20 80 8 58 8 C 36 8 18 20 18 38 L 18 44 L 30 44 L 30 38 C 30 26 42 18 58 18 C 74 18 86 26 86 38 L 86 44 L 98 44 Z" fill="#217346"/>

        <!-- Blue - Left side -->
        <path d="M 18 44 L 18 84 L 30 84 L 30 44 Z" fill="#185ABD"/>

        <!-- Light Blue - Bottom left -->
        <path d="M 18 84 C 18 102 36 114 58 114 L 58 104 C 42 104 30 96 30 84 Z" fill="#0078D4"/>

        <!-- Orange - Bottom right -->
        <path d="M 58 104 L 58 114 C 80 114 98 102 98 84 L 98 70 L 86 70 L 86 84 C 86 96 74 104 58 104 Z" fill="#C43E1C"/>

        <!-- Purple - Crossbar -->
        <path d="M 58 60 L 58 70 L 98 70 L 98 60 Z" fill="#7719AA"/>
    </g>
</svg>
